# xmcd CD database file
#
# Track frame offsets:
#	150
#	21558
#	41158
#	59452
#	77001
#	93981
#	114638
#	132666
#	150340
#	168138
#	185129
#	207281
#
# Disc length: 3043 seconds
#
# Revision: 2
# Processed by: cddbd v1.5.1PL0 Copyright (c) Steve Scherf et al.
# Submitted via: CDex 1.51
#
DISCID=a50be10c
DTITLE=Cher - Living Proof
DYEAR=2001
DGENRE=Pop
TTITLE0=The Musics No Good Without You
TTITLE1=Alive Again
TTITLE2=This Is A Song For The Lonely
TTITLE3=A Different Kind Of Love Song
TTITLE4=Rain Rain
TTITLE5=Love So High
TTITLE6=Body To Body Heart To Heart
TTITLE7=Love Is A Lonely Place Without You
TTITLE8=Real Love
TTITLE9=Love One Another
TTITLE10=You Take It All
TTITLE11=When The Moneys Gone
EXTD=YEAR: 2001
EXTT0=
EXTT1=
EXTT2=
EXTT3=
EXTT4=
EXTT5=
EXTT6=
EXTT7=
EXTT8=
EXTT9=
EXTT10=
EXTT11=
PLAYORDER=
